<?xml version="1.0" standalone="no"?>
<!DOCTYPE svg PUBLIC "-//W3C//DTD SVG 20010904//EN"
 "http://www.w3.org/TR/2001/REC-SVG-20010904/DTD/svg10.dtd">
<svg version="1.0" xmlns="http://www.w3.org/2000/svg"
 width="350.000000pt" height="350.000000pt" viewBox="0 0 350.000000 350.000000"
 preserveAspectRatio="xMidYMid meet">
<metadata>
Created by potrace 1.11, written by Peter Selinger 2001-2013
</metadata>
<g transform="translate(0.000000,350.000000) scale(0.100000,-0.100000)"
fill="#000000" stroke="none">
<path d="M1545 3239 c-620 -84 -1119 -524 -1270 -1121 -65 -259 -55 -557 28
-803 l24 -70 61 -12 c90 -18 150 -50 213 -113 92 -91 128 -222 95 -349 -9 -34
-14 -67 -11 -72 10 -15 147 -124 213 -168 153 -103 371 -191 567 -227 148 -28
422 -26 565 5 541 115 965 486 1134 991 54 163 70 270 70 475 0 200 -13 304
-54 438 -19 61 -23 67 -48 67 -35 0 -123 42 -173 81 -21 16 -61 64 -88 105
-75 112 -96 203 -70 299 l11 40 -68 63 c-183 171 -467 309 -731 358 -105 19
-370 27 -468 13z m310 -339 c186 -21 371 -87 525 -187 114 -74 252 -214 329
-332 l60 -95 -37 -45 c-20 -25 -120 -147 -221 -271 -101 -124 -188 -230 -193
-236 -6 -8 4 -20 29 -35 21 -12 60 -41 86 -62 30 -25 51 -36 55 -30 4 6 84
124 177 262 l170 250 13 -37 c48 -138 55 -429 13 -585 -55 -209 -146 -369
-296 -523 -296 -302 -714 -419 -1123 -314 -274 69 -525 248 -679 484 l-52 78
226 272 c124 149 232 278 240 287 12 15 9 19 -31 39 -25 12 -68 40 -96 62 -30
24 -55 37 -58 31 -214 -328 -347 -522 -353 -516 -4 4 -18 49 -30 98 -21 79
-24 112 -23 270 1 161 3 190 27 277 136 508 576 852 1107 867 25 0 86 -4 135
-9z"/>
<path d="M1265 2600 c-58 -18 -140 -76 -177 -125 -79 -104 -94 -243 -40 -359
60 -128 165 -198 307 -204 113 -5 178 21 261 102 83 82 108 146 102 266 -5 99
-33 165 -98 230 -67 67 -131 93 -235 96 -49 2 -103 -1 -120 -6z"/>
<path d="M1689 1884 c-24 -20 -59 -44 -77 -52 -18 -9 -31 -19 -30 -24 2 -4 36
-50 77 -103 l74 -95 41 33 c22 18 58 43 79 56 25 15 35 27 29 35 -11 14 -133
168 -142 179 -4 4 -27 -9 -51 -29z"/>
<path d="M2041 1618 c-232 -37 -363 -291 -261 -503 84 -174 306 -248 481 -159
253 128 254 500 1 628 -42 22 -66 28 -147 40 -11 2 -44 -1 -74 -6z"/>
<path d="M3062 2992 c-141 -51 -231 -190 -220 -337 10 -117 80 -220 187 -272
48 -24 68 -28 141 -28 73 0 93 4 141 28 66 32 132 99 162 165 34 73 31 198 -6
273 -32 67 -100 132 -165 162 -66 29 -172 33 -240 9z"/>
<path d="M222 1172 c-141 -51 -231 -190 -220 -337 10 -117 80 -220 187 -272
48 -24 68 -28 141 -28 73 0 93 4 141 28 66 32 132 99 162 165 34 73 31 198 -6
273 -32 67 -100 132 -165 162 -66 29 -172 33 -240 9z"/>
</g>
</svg>
